<?xml version="1.0" encoding="UTF-8"?>
<svg xmlns="http://www.w3.org/2000/svg" xmlns:xlink="http://www.w3.org/1999/xlink" width="24px" height="24px" viewBox="0 0 24 24" version="1.1">
<g id="surface1">
<path style="fill-rule:nonzero;fill:rgb(0%,0%,0%);fill-opacity:1;stroke-width:1;stroke-linecap:butt;stroke-linejoin:miter;stroke:rgb(0%,0%,0%);stroke-opacity:1;stroke-miterlimit:4;" d="M 11.822917 1.070964 C 13.649089 1.070964 15.47526 1.354167 17.200521 1.88151 C 17.910156 2.096354 18.209635 2.483724 18.209635 2.910156 C 18.209635 3.476562 17.555339 4.078776 16.640625 4.078776 C 16.438802 4.078776 16.184896 4.042969 15.979818 3.971354 C 14.61263 3.548177 13.245443 3.336589 11.621094 3.336589 C 9.746094 3.336589 4.879557 3.548177 4.879557 10.091146 C 4.879557 15.992839 8.883464 16.663411 11.927083 16.663411 C 13.297526 16.627604 14.713542 16.451823 16.031901 16.10026 C 16.285807 16.028646 16.539714 15.992839 16.79362 15.992839 C 17.708333 15.992839 18.36263 16.595052 18.36263 17.19401 C 18.36263 17.584635 18.059896 17.936198 17.402344 18.151042 C 15.628255 18.645833 13.802083 18.893229 11.927083 18.929036 C 7.210286 18.929036 1.63737 17.405599 1.63737 10.091146 C 1.63737 2.239583 8.024089 1.070964 11.822917 1.070964 Z M 11.822917 1.070964 " transform="matrix(1.2,0,0,1.2,0,0)"/>
</g>
</svg>
